<?xml version="1.0" encoding="UTF-8"?>
<svg width="16px" height="16px" viewBox="0 0 16 16" version="1.1" xmlns="http://www.w3.org/2000/svg" xmlns:xlink="http://www.w3.org/1999/xlink">
    <title>手机号</title>
    <g id="页面-1" stroke="none" stroke-width="1" fill="none" fill-rule="evenodd">
        <g id="登陆1366备份" transform="translate(-885.000000, -311.000000)" fill="#525361" fill-rule="nonzero">
            <g id="登陆1366" transform="translate(163.000000, 84.000000)">
                <g id="组_2" transform="translate(640.000000, 0.000000)">
                    <g id="手机号" transform="translate(70.000000, 217.000000)">
                        <g id="编组-5" transform="translate(12.000000, 10.000000)">
                            <path d="M11.819,0.114 C12.9716183,0.114 13.906,1.04838173 13.906,2.201 L13.906,13.801 C13.906,14.9536183 12.9716183,15.888 11.819,15.888 L4.088,15.888 C2.93538173,15.888 2.001,14.9536183 2.001,13.801 L2.001,2.201 C2.001,1.64749319 2.22087973,1.11665657 2.61226815,0.725268148 C3.00365657,0.333879726 3.53449319,0.114 4.088,0.114 L11.819,0.114 Z M11.819,1.19598742 L4.088,1.19598742 C3.82104946,1.19466188 3.56464557,1.30011575 3.37588066,1.48888066 C3.18711575,1.67764557 3.08166188,1.93404946 3.08298742,2.201 L3.08298742,13.801 C3.08166188,14.0679505 3.18711575,14.3243544 3.37588066,14.5131193 C3.56464557,14.7018843 3.82104946,14.8073381 4.088,14.8060126 L11.819,14.8060126 C12.0859505,14.8073381 12.3423544,14.7018843 12.5311193,14.5131193 C12.7198843,14.3243544 12.8253381,14.0679505 12.8240126,13.801 L12.8240126,2.201 C12.8250705,1.93422238 12.7194984,1.67807665 12.5307628,1.4895288 C12.3420271,1.30098094 12.0857764,1.19566395 11.819,1.197 L11.819,1.19598742 Z M7.953,10.937 C8.7643063,10.937 9.422,11.5946937 9.422,12.406 C9.422,13.2173063 8.7643063,13.875 7.953,13.875 C7.1416937,13.875 6.484,13.2173063 6.484,12.406 C6.484,11.5946937 7.1416937,10.937 7.953,10.937 L7.953,10.937 Z M7.953,12.019 C7.7392658,12.019 7.566,12.1922658 7.566,12.406 C7.566,12.6197342 7.7392658,12.793 7.953,12.793 C8.1667342,12.793 8.34,12.6197342 8.34,12.406 C8.33889945,12.1930473 8.16595558,12.0209972 7.953,12.021 L7.953,12.019 Z M9.499,2.432 C9.78657619,2.42785598 10.0271273,2.64944325 10.0465589,2.93639211 C10.0659905,3.22334098 9.85750943,3.47533581 9.572,3.51 L9.499,3.51 L6.406,3.51 C6.11842381,3.51414402 5.8778727,3.29255675 5.85844109,3.00560789 C5.83900949,2.71865902 6.04749057,2.46666419 6.333,2.432 L6.406,2.432 L9.499,2.432 Z" id="路径_3531"></path>
                        </g>
                    </g>
                </g>
            </g>
        </g>
    </g>
</svg>