<?xml version="1.0" encoding="UTF-8"?>
<svg width="16px" height="16px" viewBox="0 0 16 16" version="1.1" xmlns="http://www.w3.org/2000/svg" xmlns:xlink="http://www.w3.org/1999/xlink">
    <title>手机号</title>
    <g id="页面-1" stroke="none" stroke-width="1" fill="none" fill-rule="evenodd">
        <g id="登陆1366备份" transform="translate(-885.000000, -376.000000)" fill="#525361" fill-rule="nonzero">
            <g id="登陆1366" transform="translate(163.000000, 84.000000)">
                <g id="组_2" transform="translate(640.000000, 0.000000)">
                    <g id="验证码" transform="translate(70.000000, 282.000000)">
                        <g id="编组-6" transform="translate(12.000000, 10.000000)">
                            <path d="M11.798,6.949 C12.075763,6.94873432 12.342226,7.05895762 12.5386342,7.25536583 C12.7350424,7.45177404 12.8452657,7.71823697 12.845002,7.996 L12.845002,12.896 C12.8461089,13.4758366 12.3778312,13.9472452 11.798,13.9500005 L4.098,13.9500005 C3.82023697,13.9502657 3.55377404,13.8400424 3.35736583,13.6436342 C3.16095762,13.447226 3.05073432,13.180763 3.05099803,12.903 L3.05099803,7.993 C3.0498911,7.41316335 3.51816884,6.94175482 4.098,6.939 L11.798,6.939 M11.798,5.892 L4.098,5.892 C2.93820203,5.892 1.998,6.83220203 1.998,7.992 L1.998,12.892 C1.998,13.4489546 2.21924936,13.9830978 2.61307576,14.3769242 C3.00690215,14.7707506 3.54104537,14.992 4.098,14.992 L11.798,14.992 C12.3549546,14.992 12.8890978,14.7707506 13.2829242,14.3769242 C13.6767506,13.9830978 13.898,13.4489546 13.898,12.892 L13.898,7.992 C13.8903481,6.83587437 12.9541354,5.90099915 11.798,5.895 L11.798,5.892 Z M7.95,2.04399918 C8.59941267,2.04346878 9.22237975,2.30121174 9.68158401,2.76041599 C10.1407883,3.21962025 10.3985312,3.84258733 10.3980008,4.492 L10.3980008,5.892 L5.498,5.892 L5.498,4.492 C5.49965298,3.14069221 6.59469221,2.04565298 7.946,2.04399918 M7.946,0.997 C6.0153441,0.997 4.4493097,2.56034694 4.446,4.491 L4.446,6.94 L11.446,6.94 L11.446,4.5 C11.446,2.56817434 9.88082495,1.00165585 7.949,1 L7.946,0.997 Z M7.946,12.019 C7.6576105,12.0179035 7.42409655,11.7843895 7.423,11.496 L7.423,9.396 C7.423,9.10687893 7.65737893,8.8725 7.9465,8.8725 C8.23562107,8.8725 8.47,9.10687893 8.47,9.396 L8.47,11.496 C8.47270979,11.6354476 8.4188536,11.7700529 8.32070276,11.8691457 C8.22255191,11.9682385 8.0884671,12.0233778 7.949,12.0220252 L7.946,12.019 Z" id="路径_3530"></path>
                        </g>
                    </g>
                </g>
            </g>
        </g>
    </g>
</svg>